<?xml version="1.0" standalone="no"?>
<!DOCTYPE svg PUBLIC "-//W3C//DTD SVG 20010904//EN"
 "http://www.w3.org/TR/2001/REC-SVG-20010904/DTD/svg10.dtd">
<svg version="1.0" xmlns="http://www.w3.org/2000/svg"
 width="231.000000pt" height="231.000000pt" viewBox="0 0 231.000000 231.000000"
 preserveAspectRatio="xMidYMid meet">
<metadata>
Created by potrace 1.11, written by Peter Selinger 2001-2013
</metadata>
<g transform="translate(0.000000,231.000000) scale(0.100000,-0.100000)"
fill="#000000" stroke="none">
<path d="M13 1153 l2 -1147 1125 0 c619 -1 1130 0 1135 1 11 4 13 463 1 481
-3 6 -3 13 2 16 9 5 8 208 -2 224 -3 6 -3 13 1 15 10 6 9 689 -1 705 -3 6 -3
13 2 16 7 4 9 193 2 221 -1 6 -1 15 0 20 1 6 3 141 4 301 1 254 -1 291 -14
289 -8 -1 -14 -7 -13 -13 2 -6 -6 -14 -17 -17 -11 -4 -20 -13 -20 -21 0 -8 -3
-14 -7 -12 -5 2 -24 -13 -44 -34 -21 -21 -35 -38 -32 -38 3 0 -14 -16 -37 -35
-23 -19 -38 -35 -33 -35 4 0 -5 -9 -22 -20 -16 -11 -27 -20 -23 -20 4 0 -21
-26 -56 -57 -35 -32 -65 -62 -65 -66 -2 -14 -28 -36 -35 -30 -3 4 -6 1 -6 -5
0 -6 -121 -133 -269 -281 -148 -149 -266 -271 -264 -271 3 0 -11 -13 -31 -29
-20 -16 -38 -33 -39 -38 -1 -4 -5 -7 -9 -6 -5 2 -8 -4 -8 -13 0 -8 -3 -13 -7
-11 -5 2 -16 -4 -25 -15 -10 -10 -15 -18 -12 -18 4 0 -5 -9 -19 -20 -14 -11
-28 -20 -31 -20 -10 0 -201 195 -198 203 1 4 -2 7 -6 7 -5 0 -61 53 -125 118
-541 545 -767 775 -767 784 0 5 -4 6 -10 3 -5 -3 -10 -1 -10 4 0 6 -4 11 -9
11 -6 0 -9 -450 -8 -1147z"/>
</g>
</svg>
